<?xml version="1.0" encoding="utf-8"?>
<!-- Generator: Adobe Illustrator 22.1.0, SVG Export Plug-In . SVG Version: 6.00 Build 0)  -->
<svg version="1.1" id="Layer_1" xmlns="http://www.w3.org/2000/svg" xmlns:xlink="http://www.w3.org/1999/xlink" x="0px" y="0px"
	 viewBox="0 0 100 100" style="enable-background:new 0 0 100 100;" xml:space="preserve">
<style type="text/css">
	.st0{fill:#333333;}
</style>
<path class="st0" d="M86.5,62.5c0.6-2.9,1-6,1-9.3c0-5.4-0.9-10.5-2.7-15c5.5-10.4,8.4-18.5,8.9-25.4c0.1-0.9-0.2-1.7-0.8-2.4
	c-0.6-0.6-1.4-1-2.3-1c-8,0-15.7,3.3-23.4,9.9c-5-2.4-10.8-3.7-17.2-3.7s-12.1,1.3-17.2,3.7c-7.8-6.6-15.4-9.9-23.4-9.9
	c-0.9,0-1.7,0.4-2.3,1c-0.6,0.6-0.9,1.5-0.8,2.4c0.5,6.9,3.4,15,8.9,25.4c-1.7,4.5-2.7,9.5-2.7,15c0,3.2,0.4,6.3,1,9.3
	c-2,1-3.9,2.3-6,3.8c-1.4,1-1.7,3-0.7,4.4C7.5,71.6,8.4,72,9.4,72c0.6,0,1.3-0.2,1.9-0.6c1.5-1.1,2.8-2,4.1-2.7
	c0.8,2,1.7,3.8,2.8,5.5c-2.3,0.9-4.7,2.3-7.7,4.8C9.2,80.1,9,82,10.1,83.4c0.6,0.7,1.5,1.1,2.4,1.1c0.7,0,1.4-0.2,2-0.7
	c3.1-2.6,5.3-3.7,7.7-4.4c6.6,7.1,16.3,11.4,27.8,11.4s21.2-4.2,27.8-11.4c2.4,0.7,4.5,1.8,7.7,4.4c0.6,0.5,1.3,0.7,2,0.7
	c0.9,0,1.8-0.4,2.4-1.1c1.1-1.3,0.9-3.3-0.4-4.4c-3-2.5-5.4-3.9-7.7-4.8c1.1-1.7,2-3.6,2.8-5.5c1.3,0.8,2.6,1.7,4.1,2.7
	c0.6,0.4,1.2,0.6,1.9,0.6c1,0,1.9-0.4,2.5-1.3c1-1.4,0.7-3.3-0.7-4.4C90.4,64.8,88.5,63.5,86.5,62.5z M34.4,53.2
	c-3.4,0-6.2-2.8-6.2-6.2c0-3.4,2.8-6.2,6.2-6.2s6.2,2.8,6.2,6.2C40.6,50.4,37.8,53.2,34.4,53.2z M55.6,60.2l-4.9,5.2
	c-0.4,0.4-1,0.4-1.4,0l-4.9-5.2c-1.3-1.4-0.4-3.8,1.5-3.8h8.3C56,56.4,57,58.8,55.6,60.2z M65.6,53.2c-3.4,0-6.2-2.8-6.2-6.2
	c0-3.4,2.8-6.2,6.2-6.2s6.2,2.8,6.2,6.2C71.9,50.4,69.1,53.2,65.6,53.2z"/>
</svg>
