<?xml version="1.0" encoding="utf-8"?>
<!-- Generator: Adobe Illustrator 22.1.0, SVG Export Plug-In . SVG Version: 6.00 Build 0)  -->
<svg version="1.1" id="Layer_1" xmlns="http://www.w3.org/2000/svg" xmlns:xlink="http://www.w3.org/1999/xlink" x="0px" y="0px"
	 viewBox="0 0 24 24" style="enable-background:new 0 0 24 24;" xml:space="preserve">
<style type="text/css">
	.st0{fill:#333333;}
</style>
<path class="st0" d="M12,3L12,3L12,3C6.7,3,2,4.3,2,9.4c0,5,3.2,5.3,3,3.2C4.8,10.4,7,7,7,7v5c-1.9,1.1-2,3.7-2,3.7
	c0,3.9,2.3,5.1,6,5.3v-4.3c-0.6-0.4-1-1.1-1-1.5c0-0.6,0.9-1.1,2-1.1s2,0.5,2,1.1c0,0.4-0.4,1.1-1,1.5V21c3.7-0.2,6-1.4,6-5.3
	c0,0,0-2.6-2-3.7V7c0,0,2.2,3.4,2,5.5s3,1.8,3-3.2S17.3,3,12,3z M9,11.1c-0.6,0-1-0.4-1-1s0.4-1,1-1s1,0.4,1,1
	C10,10.6,9.5,11.1,9,11.1z M15,11.1c-0.6,0-1-0.4-1-1s0.4-1,1-1s1,0.4,1,1C16,10.6,15.6,11.1,15,11.1z"/>
</svg>
