<?xml version="1.0" encoding="utf-8"?>
<!-- Generator: Adobe Illustrator 22.1.0, SVG Export Plug-In . SVG Version: 6.00 Build 0)  -->
<svg version="1.1" id="Layer_1" xmlns="http://www.w3.org/2000/svg" xmlns:xlink="http://www.w3.org/1999/xlink" x="0px" y="0px"
	 viewBox="0 0 64 64" style="enable-background:new 0 0 64 64;" xml:space="preserve">
<style type="text/css">
	.st0{fill:#333333;}
</style>
<path class="st0" d="M49.7,22.2c-0.3-0.6-0.9-1-1.6-1H37.5l11-17.4c0.3-0.5,0.4-1.2,0.1-1.8c-0.3-0.6-0.9-0.9-1.5-0.9H31
	c-0.7,0-1.3,0.4-1.6,1L14.4,32.2c-0.3,0.5-0.2,1.2,0.1,1.7c0.3,0.5,0.9,0.8,1.5,0.8h9.2L14.3,60.5c-0.3,0.8,0,1.7,0.7,2.2
	c0.3,0.2,0.6,0.3,0.9,0.3c0.5,0,1-0.2,1.3-0.6l32.2-38.2C49.9,23.6,50,22.8,49.7,22.2z"/>
</svg>
