<?xml version="1.0" encoding="utf-8"?>
<!-- Generator: Adobe Illustrator 22.1.0, SVG Export Plug-In . SVG Version: 6.00 Build 0)  -->
<svg version="1.1" id="Layer_1" xmlns="http://www.w3.org/2000/svg" xmlns:xlink="http://www.w3.org/1999/xlink" x="0px" y="0px"
	 viewBox="0 0 100 100" style="enable-background:new 0 0 100 100;" xml:space="preserve">
<style type="text/css">
	.st0{fill:#333333;}
</style>
<path class="st0" d="M83.6,16.4c-6.4-6.4-14.9-9.9-24-9.9S42,10,35.6,16.4c-10.9,10.9-13,27.8-5.4,41L9,78.7
	c-1.7,1.7-2.6,3.8-2.6,6.2c0,2.3,0.9,4.5,2.6,6.2c1.6,1.6,3.8,2.5,6.2,2.5c2.3,0,4.5-0.9,6.2-2.5l21.3-21.3c5.1,3,11,4.6,17,4.6l0,0
	c9,0,17.6-3.5,24-9.9s9.9-14.9,9.9-24C93.5,31.3,90,22.8,83.6,16.4z M74.6,55.3c-4,4-9.3,6.2-15,6.2s-11-2.2-15-6.2
	c-8.3-8.3-8.3-21.7,0-30c4-4,9.3-6.2,15-6.2s11,2.2,15,6.2C82.9,33.6,82.9,47.1,74.6,55.3z"/>
</svg>
