<?xml version="1.0" encoding="utf-8"?>
<!-- Generator: Adobe Illustrator 22.1.0, SVG Export Plug-In . SVG Version: 6.00 Build 0)  -->
<svg version="1.1" id="Layer_1" xmlns="http://www.w3.org/2000/svg" xmlns:xlink="http://www.w3.org/1999/xlink" x="0px" y="0px"
	 viewBox="0 0 55 100" style="enable-background:new 0 0 55 100;" xml:space="preserve">
<style type="text/css">
	.st0{fill:#333333;}
</style>
<g>
	<circle class="st0" cx="27.5" cy="13" r="10.5"/>
	<path class="st0" d="M50.8,50l-9.9-18.5c-1.8-3.4-5.3-5.5-9.1-5.5h-8.7c-3.8,0-7.3,2.1-9.1,5.5L4.2,50c-1.2,2.3-0.4,5.1,1.9,6.3
		c0.7,0.4,1.5,0.6,2.2,0.6c1.7,0,3.3-0.9,4.1-2.5l5.8-10.9l-4.6,48c-0.3,3,1.9,5.7,4.9,6c0.2,0,0.4,0,0.5,0c2.8,0,5.2-2.1,5.4-4.9
		l3-31.1l3,31.1c0.3,2.8,2.6,4.9,5.4,4.9c0.2,0,0.4,0,0.5,0c3-0.3,5.2-3,4.9-6l-4.6-48l5.8,10.9c0.8,1.6,2.5,2.5,4.1,2.5
		c0.7,0,1.5-0.2,2.2-0.6C51.2,55.1,52,52.3,50.8,50z"/>
</g>
</svg>
